 <svg  version="1.0" xmlns="http://www.w3.org/2000/svg" viewBox="0 0 134.000000 134.000000"  preserveAspectRatio="xMidYMid meet">  <g transform="translate(0.000000,134.000000) scale(0.100000,-0.100000)" fill="#e50688" stroke="none"> <path d="M50 675 l0 -605 204 0 c191 0 205 1 230 21 20 16 26 29 26 58 0 64 -17 71 -163 71 l-127 0 0 455 0 455 49 0 50 0 290 -265 291 -265 0 104 0 104 -258 235 -257 236 -167 1 -168 0 0 -605z m292 580 c31 -6 70 -36 215 -167 98 -89 208 -190 246 -226 l67 -64 0 -65 c0 -63 0 -64 -21 -49 -12 8 -87 74 -167 148 -351 320 -349 318 -400 318 -87 0 -82 27 -82 -472 0 -524 -14 -478 141 -478 114 0 139 -9 139 -48 0 -50 -10 -52 -212 -52 l-188 0 0 573 c0 316 2 576 4 578 8 8 217 11 258 4z"/> <path d="M852 1260 c-29 -27 -29 -83 -2 -110 18 -18 33 -20 145 -20 l125 0 0 -453 0 -454 -50 2 -49 2 -253 229 c-139 127 -270 245 -291 263 l-37 33 0 -103 0 -104 261 -237 261 -238 164 0 164 0 0 605 0 605 -208 0 c-196 0 -210 -1 -230 -20z m398 -27 c0 -5 0 -255 1 -557 0 -439 -3 -551 -13 -557 -7 -5 -67 -9 -133 -9 -98 0 -125 3 -145 17 -28 20 -461 411 -472 427 -11 16 -10 96 1 96 10 0 129 -105 341 -299 74 -68 149 -132 165 -142 41 -26 109 -25 135 1 19 19 20 33 20 470 l0 450 -25 16 c-18 12 -46 16 -110 15 -103 -2 -132 5 -140 30 -14 44 6 49 196 49 99 0 179 -3 179 -7z"/> </g> </svg> 